
<svg width="943" height="469" viewBox="0 0 943 469" fill="none" xmlns="http://www.w3.org/2000/svg">
<path d="M602.742 197.961L612.445 133.625H632.906L614.695 236H593.953L582 175.672L570.188 236H549.375L531.094 133.625H551.695L561.328 197.891L573.352 133.625H590.719L602.742 197.961ZM662.508 166.602C666.82 161.211 672.117 158.516 678.398 158.516C685.336 158.516 690.609 160.953 694.219 165.828C697.828 170.703 699.656 177.969 699.703 187.625V236H679.734V187.836C679.734 183.383 679.031 180.172 677.625 178.203C676.266 176.188 674.039 175.18 670.945 175.18C667.336 175.18 664.523 176.844 662.508 180.172V236H642.609V128H662.508V166.602ZM750.117 236C749.555 234.828 748.992 232.859 748.43 230.094C744.867 234.969 740.039 237.406 733.945 237.406C727.57 237.406 722.273 235.297 718.055 231.078C713.883 226.859 711.797 221.398 711.797 214.695C711.797 206.727 714.328 200.562 719.391 196.203C724.5 191.844 731.836 189.617 741.398 189.523H747.445V183.406C747.445 179.984 746.859 177.57 745.688 176.164C744.516 174.758 742.805 174.055 740.555 174.055C735.586 174.055 733.102 176.961 733.102 182.773H713.203C713.203 175.742 715.828 169.953 721.078 165.406C726.375 160.812 733.055 158.516 741.117 158.516C749.461 158.516 755.906 160.695 760.453 165.055C765.047 169.367 767.344 175.555 767.344 183.617V219.406C767.438 225.969 768.375 231.102 770.156 234.805V236H750.117ZM738.375 221.797C740.578 221.797 742.453 221.352 744 220.461C745.547 219.57 746.695 218.516 747.445 217.297V201.477H742.664C739.289 201.477 736.617 202.555 734.648 204.711C732.727 206.867 731.766 209.75 731.766 213.359C731.766 218.984 733.969 221.797 738.375 221.797ZM804.891 141.219V159.922H815.086V174.898H804.891V212.656C804.891 215.656 805.289 217.719 806.086 218.844C806.93 219.969 808.523 220.531 810.867 220.531C812.789 220.531 814.359 220.367 815.578 220.039L815.438 235.508C812.062 236.773 808.406 237.406 804.469 237.406C791.625 237.406 785.133 230.047 784.992 215.328V174.898H776.203V159.922H784.992V141.219H804.891ZM859.734 215.609C859.734 213.922 858.914 212.375 857.273 210.969C855.68 209.516 852.094 207.57 846.516 205.133C838.312 201.805 832.664 198.359 829.57 194.797C826.523 191.234 825 186.805 825 181.508C825 174.852 827.391 169.367 832.172 165.055C837 160.695 843.375 158.516 851.297 158.516C859.641 158.516 866.32 160.672 871.336 164.984C876.352 169.297 878.859 175.086 878.859 182.352H858.961C858.961 176.164 856.383 173.07 851.227 173.07C849.117 173.07 847.383 173.727 846.023 175.039C844.664 176.352 843.984 178.18 843.984 180.523C843.984 182.211 844.734 183.711 846.234 185.023C847.734 186.289 851.273 188.117 856.852 190.508C864.961 193.508 870.68 196.859 874.008 200.562C877.383 204.219 879.07 208.977 879.07 214.836C879.07 221.633 876.516 227.094 871.406 231.219C866.297 235.344 859.594 237.406 851.297 237.406C845.719 237.406 840.797 236.328 836.531 234.172C832.266 231.969 828.914 228.922 826.477 225.031C824.086 221.141 822.891 216.945 822.891 212.445H841.805C841.898 215.914 842.695 218.516 844.195 220.25C845.742 221.984 848.25 222.852 851.719 222.852C857.062 222.852 859.734 220.438 859.734 215.609Z" fill="white"/>
<path d="M607.227 348V245.625H634.297C646.25 245.625 655.766 249.422 662.844 257.016C669.969 264.609 673.602 275.016 673.742 288.234V304.828C673.742 318.281 670.18 328.852 663.055 336.539C655.977 344.18 646.203 348 633.734 348H607.227ZM627.898 262.852V330.844H634.086C640.977 330.844 645.828 329.039 648.641 325.43C651.453 321.773 652.93 315.492 653.07 306.586V288.797C653.07 279.234 651.734 272.578 649.062 268.828C646.391 265.031 641.844 263.039 635.422 262.852H627.898ZM708.547 348H688.578V271.922H708.547V348ZM687.664 252.234C687.664 249.141 688.648 246.609 690.617 244.641C692.586 242.672 695.211 241.688 698.492 241.688C701.773 241.688 704.398 242.672 706.367 244.641C708.336 246.609 709.32 249.141 709.32 252.234C709.32 255.281 708.336 257.812 706.367 259.828C704.445 261.844 701.82 262.852 698.492 262.852C695.164 262.852 692.516 261.844 690.547 259.828C688.625 257.812 687.664 255.281 687.664 252.234ZM761.492 291.117L754.883 290.555C749.445 290.555 745.766 292.945 743.844 297.727V348H723.875V271.922H742.648L743.211 280.148C746.352 273.727 750.688 270.516 756.219 270.516C758.469 270.516 760.297 270.82 761.703 271.43L761.492 291.117ZM801.078 349.406C790.859 349.406 782.891 346.359 777.172 340.266C771.453 334.172 768.594 325.453 768.594 314.109V308.062C768.594 296.062 771.219 286.805 776.469 280.289C781.719 273.773 789.242 270.516 799.039 270.516C808.602 270.516 815.797 273.586 820.625 279.727C825.453 285.82 827.914 294.867 828.008 306.867V316.641H788.422C788.703 322.266 789.945 326.391 792.148 329.016C794.352 331.594 797.75 332.883 802.344 332.883C809 332.883 814.555 330.609 819.008 326.062L826.812 338.086C824.375 341.461 820.836 344.203 816.195 346.312C811.555 348.375 806.516 349.406 801.078 349.406ZM788.562 302.719H808.461V300.891C808.367 296.344 807.617 292.898 806.211 290.555C804.805 288.211 802.367 287.039 798.898 287.039C795.43 287.039 792.898 288.281 791.305 290.766C789.758 293.25 788.844 297.234 788.562 302.719ZM866.75 332.883C872.516 332.883 875.445 329.133 875.539 321.633H894.242C894.148 329.93 891.594 336.633 886.578 341.742C881.562 346.852 875.094 349.406 867.172 349.406C857.375 349.406 849.898 346.359 844.742 340.266C839.586 334.172 836.961 325.195 836.867 313.336V307.289C836.867 295.336 839.398 286.219 844.461 279.938C849.57 273.656 857.094 270.516 867.031 270.516C875.422 270.516 882.031 273.117 886.859 278.32C891.688 283.477 894.148 290.812 894.242 300.328H875.539C875.492 296.062 874.789 292.781 873.43 290.484C872.07 288.188 869.82 287.039 866.68 287.039C863.211 287.039 860.727 288.281 859.227 290.766C857.727 293.203 856.93 297.961 856.836 305.039V312.773C856.836 318.961 857.141 323.297 857.75 325.781C858.359 328.219 859.367 330.023 860.773 331.195C862.18 332.32 864.172 332.883 866.75 332.883ZM928.625 253.219V271.922H938.82V286.898H928.625V324.656C928.625 327.656 929.023 329.719 929.82 330.844C930.664 331.969 932.258 332.531 934.602 332.531C936.523 332.531 938.094 332.367 939.312 332.039L939.172 347.508C935.797 348.773 932.141 349.406 928.203 349.406C915.359 349.406 908.867 342.047 908.727 327.328V286.898H899.938V271.922H908.727V253.219H928.625Z" fill="white"/>
<ellipse cx="288.835" cy="212.078" rx="211.165" ry="212.078" fill="white"/>
<ellipse cx="288.835" cy="212.078" rx="175.566" ry="176.325" fill="#29A71A"/>
<path d="M44.9015 410.376L112.038 277.452L189.81 378.205L44.9015 410.376Z" fill="white"/>
<path d="M93.9717 372.848L137.701 286.268L188.357 351.893L93.9717 372.848Z" fill="#29A71A"/>
<path d="M191.95 212.268L243.489 235.007V267.23L160.662 225.637V198.442L243.489 156.735V188.958L191.95 212.268Z" fill="white"/>
<path d="M281.376 297.054H257.825L307.544 116.399H331.096L281.376 297.054Z" fill="white"/>
<path d="M401.408 211.811L348.844 188.844V156.849L432.81 198.442V225.637L348.844 267.344V235.35L401.408 211.811Z" fill="white"/>
</svg>
