<?xml version="1.0" encoding="UTF-8"?>
<!DOCTYPE svg PUBLIC "-//W3C//DTD SVG 1.1//EN" "http://www.w3.org/Graphics/SVG/1.1/DTD/svg11.dtd">
<!-- Creator: CorelDRAW X7 -->
<svg xmlns="http://www.w3.org/2000/svg" xml:space="preserve" width="50.8mm" height="50.8mm" version="1.1" style="shape-rendering:geometricPrecision; text-rendering:geometricPrecision; image-rendering:optimizeQuality; fill-rule:evenodd; clip-rule:evenodd"
viewBox="0 0 5080000 5080000"
 xmlns:xlink="http://www.w3.org/1999/xlink">
 <defs>
  <style type="text/css">
   <![CDATA[
    .str0 {stroke:white;stroke-width:443490;stroke-linecap:square}
    .fil1 {fill:none}
    .fil2 {fill:#29A71A}
    .fil0 {fill:white;fill-rule:nonzero}
   ]]>
  </style>
 </defs>
 <g id="Layer_x0020_1">
  <metadata id="CorelCorpID_0Corel-Layer"/>
  <g id="_1515270524384">
   <g>
    <polygon class="fil0" points="1489990,1463620 1625160,2049260 1654750,2212120 1684340,2052570 1799860,1463620 2025920,1463620 2147600,2049020 2178840,2212120 2210560,2055410 2346680,1463620 2563510,1463620 2276140,2486240 2071850,2486240 1948040,1888050 1911830,1690390 1875610,1888290 1752040,2486240 1553670,2486240 1263220,1463620 "/>
    <path id="1" class="fil0" d="M3091400 1709330c46630,0 88770,8050 126880,24380 37870,16100 69120,40950 93500,74330 20830,28170 33380,57290 38110,87110 4500,30070 6870,78590 6870,146300l0 444790 -203110 0 0 -460650c0,-40720 -6860,-73620 -20590,-98720 -17750,-35270 -51600,-52780 -101550,-52780 -51610,0 -90670,17510 -117410,52550 -26750,34800 -40250,84740 -40250,149600l0 410000 -197420 0 0 -1018360 197420 0 0 359570c28650,-44030 61550,-74560 99190,-92080 37400,-17280 76930,-26040 118360,-26040z"/>
    <path id="2" class="fil0" d="M3962280 2118850c-12540,7810 -25330,14210 -38350,18940 -12780,4970 -30530,9470 -53020,13730l-44980 8290c-42130,7330 -72200,16330 -90660,26980 -31010,18230 -46400,46160 -46400,84270 0,33850 9470,58240 28410,73390 18940,14910 42130,22480 69360,22480 43080,0 82850,-12540 119070,-37630 36210,-24860 55150,-70550 56570,-136830l0 -73620zm-120720 -92080c36690,-4730 62960,-10420 78820,-17520 28410,-11830 42610,-30770 42610,-56100 0,-31010 -10890,-52310 -32670,-64150 -21770,-11840 -53730,-17750 -95870,-17750 -47340,0 -80720,11590 -100360,34560 -14210,17040 -23440,40000 -28170,69120l-190330 0c4270,-66050 22730,-120490 55630,-162860 52550,-66520 142510,-99900 269860,-99900 83090,0 156710,16570 221330,49480 64390,32900 96580,94920 96580,185820l0 346320c0,24140 480,53260 1420,87350 1430,25800 5450,43320 11840,52550 6630,9230 16330,16810 29350,22720l0 29830 -214940 0c-5910,-15150 -10180,-29350 -12540,-42850 -2130,-13250 -4030,-28400 -5450,-45450 -27460,29590 -58940,54920 -94680,75750 -42850,24390 -91140,36700 -144880,36700 -68880,0 -125690,-19650 -170430,-58710 -44740,-39060 -67230,-94450 -67230,-166180 0,-93030 35980,-160260 108180,-201920 39530,-22720 97530,-38820 174220,-48530l67710 -8280z"/>
    <path id="3" class="fil0" d="M4254390 1876930l0 -139190 105110 0 0 -213050 196000 0 0 213050 122150 0 0 139190 -122150 0 0 400520c0,31010 4020,50430 11830,58240 7820,7570 31720,11360 71730,11360 5920,0 12310,-240 18940,-710 6630,-470 13250,-1180 19650,-2130l0 147710 -93510 4260c-93500,3320 -157180,-13020 -191270,-48530 -22250,-22720 -33370,-57750 -33370,-104860l0 -465860 -105110 0z"/>
    <path id="4" class="fil0" d="M4957440 2244790c4260,35270 13260,60360 27230,75270 24610,26520 70060,39770 136580,39770 38820,0 69830,-5920 92800,-17510 22960,-11600 34560,-28880 34560,-52080 0,-22250 -9240,-39300 -27700,-50900 -18460,-11600 -87350,-31480 -206650,-59650 -85930,-21300 -146530,-47820 -181570,-79770 -35270,-31250 -52790,-76700 -52790,-135640 0,-69840 27460,-129730 82380,-179910 54920,-49950 132090,-75040 231750,-75040 94450,0 171620,18700 231040,56340 59410,37640 93740,102740 102500,195060l-197430 0c-2840,-25570 -9940,-45690 -21540,-60600 -21780,-26750 -58940,-40250 -111490,-40250 -43090,0 -73860,6630 -92320,20120 -18230,13500 -27460,29120 -27460,47350 0,22720 9700,39060 29350,49240 19410,10650 88300,28880 206420,54680 78590,18700 137770,46630 177300,84030 39060,37880 58470,85220 58470,142030 0,74810 -27930,136120 -83800,183460 -55860,47340 -142030,71020 -258970,71020 -119070,0 -206890,-25100 -263700,-75280 -56810,-50190 -85220,-114100 -85220,-191740l200260 0z"/>
    <path class="fil0" d="M2351400 2744310l0 670380 198130 0c101550,0 172100,-49950 212100,-149840 22020,-54920 32910,-120020 32910,-195770 0,-104630 -16340,-184870 -49240,-240740 -32670,-56100 -98000,-84030 -195770,-84030l-198130 0zm234590 -176120c63440,940 116460,8280 158600,22250 71960,23430 130190,66750 174700,129720 35740,50890 60120,105810 73140,164990 13020,59180 19410,115760 19410,169490 0,135880 -27460,250920 -82140,345380 -74090,127110 -188900,190790 -343710,190790l-441960 0 0 -1022620 441960 0z"/>
    <path id="1" class="fil0" d="M3357210 2744310l-200260 0 0 -181800 200260 0 0 181800zm-200260 89470l200260 0 0 757030 -200260 0 0 -757030z"/>
    <path id="2" class="fil0" d="M3958480 2816740c3550,0 6860,0 9230,240 2610,230 8290,710 17040,1180l0 203110c-12540,-1660 -23670,-2840 -33370,-3320 -9710,-710 -17520,-950 -23440,-950 -79530,0 -133030,25810 -160260,77650 -15380,29110 -22960,74090 -22960,134690l0 361470 -197420 0 0 -757030 187480 0 0 132330c30540,-50180 57050,-84510 79540,-102970 36930,-31010 84980,-46400 144160,-46400z"/>
    <path id="3" class="fil0" d="M4415820 2978660c-50890,0 -90190,13960 -118120,42130 -27930,27940 -45690,66050 -52790,114100l340880 0c-3560,-51130 -21070,-89950 -52790,-116460 -31490,-26520 -70540,-39770 -117180,-39770zm1190 -164760c65800,0 124980,11840 177530,35270 52790,23670 96110,60840 130440,111730 31010,44980 51130,97060 60120,156240 5450,34560 7580,84510 6630,149840l-551080 0c3080,76220 29350,129720 79060,160260 30070,19170 66290,28640 108890,28640 44980,0 81440,-11600 109610,-34560 15380,-12550 28870,-29830 40710,-52080l202870 0c-5210,44980 -29830,90430 -73150,136820 -67700,73620 -162390,110320 -284060,110320 -100600,0 -189370,-31010 -266070,-93030 -76930,-62020 -115280,-163100 -115280,-303000 0,-131150 34560,-231510 103920,-301580 69350,-69840 159310,-104870 269860,-104870z"/>
    <path id="4" class="fil0" d="M5343050 3106480c-3550,-28170 -13020,-53730 -28170,-76460 -22020,-30530 -56100,-45680 -102500,-45680 -66040,0 -111260,33140 -135640,99180 -12780,35040 -19170,81670 -19170,139900 0,55400 6390,99900 19170,133510 23200,63210 66990,94690 131380,94690 45690,0 78120,-12550 97290,-37640 18940,-24850 30770,-57520 34800,-97290l203100 0c-4500,59890 -26270,116700 -65100,170200 -61780,86400 -153150,129490 -274590,129490 -121200,0 -210440,-35990 -267730,-107710 -57050,-71960 -85690,-165230 -85690,-280280 0,-129950 31720,-231030 94920,-303230 63210,-72200 150560,-108420 261820,-108420 94450,0 172090,21310 232220,63920 60360,42600 95870,117880 106990,225820l-203100 0z"/>
    <path id="5" class="fil0" d="M5604620 2981500l0 -139190 105110 0 0 -213050 196000 0 0 213050 122150 0 0 139190 -122150 0 0 400520c0,31010 4020,50430 11830,58240 7820,7570 31720,11360 71730,11360 5920,0 12310,-240 18940,-710 6630,-470 13250,-1180 19650,-2130l0 147710 -93510 4260c-93500,3320 -157180,-13020 -191270,-48530 -22250,-22720 -33370,-57750 -33370,-104860l0 -465860 -105110 0z"/>
   </g>
   <g>
    <g>
     <path class="fil1 str0" d="M101710 1490400c579680,0 1049610,469920 1049610,1049600 0,216670 -65660,418010 -178170,585190l111580 416340 -423410 -113460c-161990,102290 -353870,161540 -559610,161540 -579680,0 -1049600,-469930 -1049600,-1049610 0,-579680 469920,-1049600 1049600,-1049600z"/>
     <path id="1" class="fil2" d="M101710 1490400c579680,0 1049610,469920 1049610,1049600 0,216670 -65660,418010 -178170,585190l111580 416340 -423410 -113460c-161990,102290 -353870,161540 -559610,161540 -579680,0 -1049600,-469930 -1049600,-1049610 0,-579680 469920,-1049600 1049600,-1049600z"/>
    </g>
    <path class="fil0" d="M-640470 3251800l483560 -1423580 490440 0c110680,0 192920,6630 246630,20210 75100,18890 133090,53020 174090,102070 53610,63620 82150,144480 85730,243220 3900,98750 -15930,211750 -59040,338670 -36700,108030 -81810,203790 -135360,287300 -53560,83510 -109550,152760 -167560,207440 -58340,54680 -116050,97750 -173680,128900 -57420,31480 -122180,55340 -193980,71580 -72120,16240 -151040,24190 -237200,24190l-513630 0zm245620 -167010l303540 0c93770,0 170270,-8620 229580,-26180 59320,-17560 110070,-42090 152690,-73900 59590,-44730 114880,-105040 165390,-180600 50510,-75550 94180,-167010 130760,-274700 50650,-149120 65070,-263780 43600,-343970 -21470,-80190 -62560,-133870 -123250,-161050 -43720,-19550 -121640,-29160 -233650,-29160l-298560 0 -370100 1089560z"/>
    <g>
     <path id="1" class="fil0" d="M-91530 1828220l-483560 1423580 -130760 0 483560 -1423580 87590 -65390 43170 65390zm-130760 0l22210 -65390 65380 0 -87590 65390zm533610 65390l-490440 0 44420 -130780 490440 0 0 0 -44420 130780zm305240 -108880l-72800 127400 -60 -20 -4340 -1060 -4600 -1050 -4760 -1030 -4910 -990 -5150 -970 -5340 -940 -5520 -910 -5720 -880 -5880 -850 -6090 -810 -6320 -790 -6480 -750 -6650 -720 -6830 -690 -7030 -650 -7200 -610 -7370 -580 -7570 -540 -7750 -510 -7920 -460 -8110 -430 -8270 -400 -8460 -350 -8630 -320 -8850 -280 -8990 -260 -9160 -200 -9340 -170 -9520 -130 -9720 -100 -9870 -60 -10030 -10 44420 -130780 10550 30 10390 60 10200 100 10060 130 9920 190 9760 220 9590 260 9410 300 9290 340 9120 390 8970 420 8810 470 8660 520 8510 550 8350 600 8210 640 8040 690 7890 730 7750 770 7590 820 7440 870 7260 910 7150 950 7040 1010 6860 1060 6720 1110 6560 1160 6430 1210 6330 1270 6160 1330 5960 1370 5900 1440 -60 -20zm196870 115850l-118360 99840 -100 -120 -3320 -3880 -3420 -3820 -3510 -3750 -3580 -3680 -3640 -3570 -3760 -3500 -3880 -3490 -3920 -3370 -3990 -3280 -4110 -3230 -4210 -3160 -4280 -3080 -4360 -3000 -4480 -2950 -4580 -2880 -4610 -2770 -4740 -2710 -4860 -2660 -4960 -2590 -5010 -2510 -5110 -2410 -5210 -2360 -5310 -2280 -5440 -2220 -5510 -2140 -5610 -2060 -5700 -1990 -5840 -1920 -5910 -1850 -5980 -1750 -6150 -1690 -6220 -1620 72800 -127400 7760 2020 7630 2110 7600 2230 7470 2330 7340 2420 7280 2530 7170 2640 7070 2740 6940 2840 6870 2940 6770 3060 6670 3170 6550 3270 6420 3350 6320 3460 6240 3570 6170 3710 6000 3780 5900 3870 5820 4000 5700 4100 5570 4200 5470 4290 5390 4420 5260 4530 5100 4570 5040 4720 4940 4850 4800 4900 4670 5010 4580 5120 4460 5220 -100 -120zm95560 269960l-138020 46360 -10 -170 -370 -8340 -500 -8200 -640 -8130 -750 -8010 -900 -7880 -1030 -7820 -1140 -7670 -1290 -7550 -1410 -7510 -1540 -7380 -1660 -7250 -1790 -7150 -1930 -7070 -2050 -6970 -2180 -6880 -2300 -6750 -2440 -6680 -2560 -6590 -2690 -6460 -2820 -6400 -2950 -6300 -3070 -6220 -3190 -6080 -3330 -6010 -3470 -5940 -3590 -5840 -3730 -5760 -3850 -5680 -3980 -5570 -4110 -5490 -4250 -5410 -4380 -5320 118360 -99840 5520 6700 5370 6830 5210 6950 5040 7070 4870 7160 4710 7280 4550 7400 4390 7520 4230 7630 4070 7780 3890 7860 3730 7960 3560 8080 3410 8200 3220 8310 3080 8400 2900 8550 2740 8620 2570 8730 2410 8850 2250 8970 2080 9070 1900 9160 1750 9230 1590 9390 1420 9490 1250 9540 1100 9700 930 9770 780 9870 600 10000 450 10060 -10 -170zm-62670 361850l-130760 0 -10 0 3770 -11260 3650 -11170 3490 -11060 3380 -10990 3240 -10900 3100 -10790 2970 -10730 2850 -10630 2700 -10520 2580 -10460 2440 -10330 2300 -10250 2190 -10220 2050 -10060 1910 -9970 1790 -9920 1660 -9790 1520 -9710 1390 -9660 1270 -9540 1140 -9450 1010 -9350 870 -9260 750 -9200 620 -9080 490 -8990 370 -8940 240 -8820 110 -8730 -20 -8680 -140 -8560 -270 -8470 138020 -46360 330 10130 160 10200 20 10260 -130 10370 -280 10440 -430 10500 -570 10610 -740 10680 -870 10720 -1030 10840 -1170 10910 -1320 10990 -1470 11040 -1610 11100 -1760 11230 -1900 11290 -2050 11340 -2190 11450 -2350 11520 -2470 11520 -2620 11670 -2780 11750 -2900 11780 -3060 11900 -3190 11930 -3330 12010 -3480 12110 -3620 12160 -3740 12230 -3910 12340 -4030 12370 -4170 12460 -10 0zm-144560 306190l-112360 -37780 -10 10 4560 -7160 4500 -7230 4500 -7370 4430 -7360 4380 -7460 4390 -7610 4330 -7630 4280 -7700 4250 -7800 4210 -7880 4160 -7930 4150 -8070 4100 -8110 4020 -8140 4020 -8310 3970 -8330 3930 -8430 3910 -8540 3830 -8540 3810 -8660 3780 -8770 3720 -8830 3690 -8890 3640 -8980 3600 -9060 3550 -9140 3520 -9210 3480 -9320 3430 -9360 3370 -9430 3350 -9560 3310 -9610 130760 0 -3630 10570 -3670 10480 -3750 10470 -3810 10400 -3840 10280 -3900 10250 -3970 10180 -4020 10120 -4080 10060 -4130 9990 -4200 9930 -4240 9830 -4290 9800 -4390 9780 -4410 9620 -4470 9610 -4550 9550 -4580 9430 -4680 9460 -4720 9330 -4750 9250 -4840 9230 -4890 9140 -4950 9080 -5020 9040 -5070 8950 -5110 8850 -5200 8840 -5270 8800 -5300 8650 -5380 8650 -5440 8560 -10 10zm-183920 227010l-79640 -76920 -220 210 4700 -4470 4720 -4580 4700 -4630 4700 -4730 4730 -4840 4740 -4940 4710 -4990 4750 -5130 4760 -5200 4720 -5260 4720 -5360 4760 -5490 4730 -5530 4730 -5640 4790 -5790 4740 -5810 4730 -5910 4780 -6060 4740 -6080 4710 -6150 4760 -6310 4750 -6400 4730 -6450 4750 -6580 4750 -6660 4720 -6730 4720 -6820 4710 -6910 4730 -7040 4730 -7110 4700 -7180 4710 -7300 112360 37780 -5350 8280 -5380 8220 -5390 8130 -5410 8040 -5450 7990 -5480 7920 -5500 7830 -5510 7740 -5530 7660 -5570 7610 -5590 7500 -5600 7430 -5670 7410 -5680 7300 -5660 7160 -5730 7150 -5760 7070 -5730 6930 -5810 6920 -5830 6830 -5840 6730 -5900 6680 -5920 6600 -5920 6500 -5950 6410 -6010 6370 -6000 6240 -6030 6180 -6100 6130 -6120 6050 -6120 5920 -6160 5870 -220 210zm-195390 144670l-36220 -108460 530 -290 4520 -2480 4590 -2560 4460 -2550 4540 -2660 4550 -2720 4600 -2820 4640 -2880 4580 -2920 4550 -2950 4610 -3060 4710 -3180 4650 -3190 4700 -3290 4710 -3350 4630 -3350 4780 -3530 4720 -3530 4710 -3600 4830 -3740 4790 -3760 4770 -3810 4780 -3880 4880 -4020 4850 -4040 4860 -4130 4890 -4190 4850 -4230 4900 -4340 4970 -4440 4890 -4440 4950 -4560 4980 -4640 79640 76920 -5960 5540 -5970 5500 -6030 5460 -5950 5340 -6000 5300 -6050 5270 -6010 5170 -6040 5110 -6030 5040 -6000 4940 -6080 4940 -6110 4870 -6070 4780 -6030 4660 -6130 4680 -6140 4590 -6060 4470 -6210 4510 -6130 4350 -6120 4290 -6190 4250 -6110 4120 -6210 4120 -6270 4070 -6240 3960 -6180 3860 -6220 3800 -6250 3740 -6280 3680 -6340 3630 -6230 3480 -6280 3440 530 -290zm-218180 80870l12180 -127040 -80 10 6120 -1400 5990 -1430 5980 -1480 6000 -1530 5900 -1550 5820 -1580 5810 -1630 5730 -1660 5670 -1690 5660 -1740 5630 -1780 5460 -1770 5490 -1850 5500 -1890 5360 -1900 5340 -1940 5230 -1950 5210 -2010 5220 -2060 5130 -2070 5090 -2110 5000 -2130 4960 -2170 4930 -2200 4890 -2250 4870 -2290 4760 -2280 4660 -2310 4700 -2370 4670 -2420 4560 -2410 4520 -2450 36220 108460 -6280 3410 -6340 3350 -6310 3260 -6380 3230 -6480 3190 -6480 3120 -6450 3030 -6530 2990 -6550 2940 -6620 2890 -6660 2830 -6670 2770 -6690 2710 -6700 2640 -6790 2610 -6870 2570 -6820 2480 -6900 2440 -6840 2350 -6930 2330 -7040 2290 -6970 2200 -7020 2160 -7070 2110 -7130 2060 -7110 1990 -7180 1960 -7200 1890 -7160 1830 -7280 1800 -7350 1750 -7300 1680 -80 10zm-253320 26060l44420 -130780 0 0 7690 -10 7600 -70 7590 -110 7540 -160 7460 -200 7440 -240 7360 -280 7350 -350 7300 -360 7200 -430 7200 -460 7120 -500 7100 -560 7010 -590 7010 -640 6950 -680 6820 -720 6860 -770 6810 -810 6710 -850 6720 -910 6620 -930 6570 -980 6560 -1030 6460 -1060 6470 -1110 6380 -1140 6330 -1200 6310 -1230 6220 -1270 6170 -1310 6150 -1360 -12180 127040 -7410 1640 -7470 1590 -7500 1530 -7490 1470 -7570 1420 -7580 1360 -7570 1310 -7660 1260 -7640 1190 -7730 1160 -7740 1090 -7740 1030 -7810 990 -7810 930 -7840 890 -7960 840 -7890 760 -7950 740 -8010 670 -8000 620 -8080 580 -8060 520 -8160 470 -8140 420 -8170 370 -8260 320 -8240 280 -8320 220 -8320 160 -8350 130 -8420 70 -8430 30 0 0zm-469210 -130780l513630 0 -44420 130780 -513630 0 -43170 -65390 87590 -65390zm-44420 130780l-65380 0 22210 -65390 43170 65390zm549160 -167010l-303540 0 44420 -130780 303540 0 0 0 -44420 130780zm252450 -153680l-1320 124220 10 0 -6710 1930 -6820 1880 -6830 1780 -6890 1710 -7010 1640 -7080 1570 -7070 1480 -7160 1430 -7270 1360 -7310 1290 -7360 1220 -7450 1170 -7570 1110 -7640 1040 -7630 960 -7800 930 -7880 850 -7870 800 -7980 740 -8130 690 -8210 630 -8200 560 -8320 520 -8460 460 -8500 400 -8590 350 -8670 290 -8800 250 -8840 170 -8940 140 -9030 70 -9120 40 44420 -130780 8360 -20 8250 -70 8140 -120 8020 -170 7880 -210 7790 -270 7690 -310 7560 -360 7400 -400 7340 -460 7260 -500 7050 -530 6930 -590 6860 -640 6790 -680 6560 -710 6460 -770 6410 -820 6200 -840 6070 -890 5990 -930 5880 -980 5730 -1010 5550 -1040 5480 -1090 5350 -1120 5160 -1150 5010 -1180 4950 -1230 4790 -1240 4600 -1260 4510 -1310 10 0zm121270 -57850l61520 92120 -240 180 -5120 3770 -5160 3700 -5140 3590 -5280 3610 -5320 3510 -5340 3460 -5420 3400 -5370 3280 -5480 3270 -5490 3180 -5620 3170 -5650 3090 -5500 2930 -5640 2950 -5850 2940 -5720 2810 -5770 2750 -5770 2670 -5830 2630 -5950 2610 -5880 2490 -6020 2490 -6010 2400 -6020 2340 -6020 2270 -6090 2230 -6220 2200 -6140 2100 -6190 2060 -6300 2030 -6260 1940 -6300 1900 1320 -124220 4780 -1440 4700 -1460 4580 -1470 4570 -1520 4540 -1560 4360 -1540 4370 -1610 4360 -1630 4260 -1660 4170 -1660 4040 -1670 4100 -1750 3930 -1710 3950 -1790 3910 -1810 3830 -1830 3760 -1830 3550 -1800 3640 -1890 3700 -1970 3450 -1890 3380 -1910 3410 -1980 3320 -1970 3350 -2060 3200 -2000 3160 -2040 3120 -2070 3040 -2070 3080 -2150 2980 -2140 2920 -2150 -240 180zm140980 -154970l110340 40860 10 -10 -5230 7750 -5260 7640 -5280 7560 -5370 7520 -5410 7430 -5460 7360 -5450 7210 -5520 7160 -5610 7150 -5620 6990 -5680 6950 -5680 6800 -5740 6750 -5860 6740 -5840 6580 -5930 6530 -5940 6410 -5980 6330 -6040 6240 -6070 6160 -6170 6100 -6180 5980 -6220 5900 -6340 5870 -6330 5710 -6330 5590 -6440 5550 -6470 5440 -6540 5380 -6590 5270 -6570 5120 -6660 5070 -61520 -92120 4480 -3410 4530 -3540 4470 -3570 4440 -3640 4490 -3780 4440 -3830 4510 -3990 4470 -4030 4400 -4070 4460 -4220 4460 -4320 4410 -4380 4450 -4500 4440 -4600 4440 -4690 4440 -4790 4390 -4850 4420 -4980 4360 -5000 4400 -5190 4440 -5300 4360 -5330 4380 -5470 4330 -5490 4360 -5680 4390 -5790 4320 -5820 4310 -5930 4290 -6020 4320 -6160 4300 -6260 4270 -6330 10 -10zm120540 -254270l130780 0 -10 0 -3610 10530 -3660 10430 -3720 10380 -3770 10300 -3800 10130 -3840 10100 -3930 10060 -3950 9920 -4010 9840 -4070 9780 -4100 9660 -4150 9590 -4220 9500 -4250 9430 -4330 9370 -4340 9200 -4410 9180 -4490 9140 -4530 9020 -4580 8920 -4620 8820 -4680 8760 -4720 8650 -4820 8640 -4850 8520 -4890 8410 -4970 8350 -4990 8230 -5090 8200 -5140 8110 -5190 8030 -5250 7930 -110340 -40860 4190 -6330 4150 -6410 4140 -6530 4090 -6620 4110 -6770 4070 -6850 4050 -6970 4030 -7040 3960 -7120 3980 -7290 3940 -7360 3920 -7500 3900 -7600 3850 -7660 3810 -7740 3790 -7900 3800 -8060 3730 -8070 3710 -8210 3680 -8320 3650 -8430 3640 -8540 3570 -8600 3550 -8740 3530 -8840 3470 -8900 3460 -9060 3440 -9210 3390 -9220 3340 -9340 3320 -9470 3290 -9570 -10 0zm41580 -310030l134820 -67880 0 0 2280 9060 1990 9230 1750 9400 1500 9640 1230 9780 990 9970 740 10140 500 10330 250 10520 10 10680 -220 10830 -460 11030 -690 11190 -920 11360 -1160 11570 -1380 11720 -1600 11890 -1840 12080 -2050 12230 -2280 12410 -2490 12590 -2710 12760 -2940 12960 -3160 13130 -3370 13300 -3580 13460 -3790 13640 -4020 13860 -4240 14040 -4440 14170 -4650 14370 -4870 14570 -130780 0 4410 -13190 4210 -12990 4000 -12770 3780 -12500 3560 -12300 3370 -12100 3160 -11860 2950 -11640 2740 -11390 2520 -11160 2330 -10960 2130 -10730 1920 -10510 1730 -10270 1520 -10020 1320 -9810 1140 -9580 920 -9330 740 -9120 550 -8890 360 -8670 180 -8430 -10 -8200 -190 -7940 -380 -7750 -540 -7520 -730 -7290 -890 -7060 -1060 -6820 -1230 -6640 -1390 -6410 -1540 -6180 0 0zm-100210 -134040l88740 -121900 20 10 6880 3210 6710 3380 6590 3580 6480 3780 6290 3960 6160 4130 6000 4320 5830 4490 5740 4710 5520 4840 5390 5000 5270 5240 5070 5360 4940 5530 4790 5720 4620 5850 4470 6020 4340 6200 4180 6370 4030 6510 3870 6660 3710 6800 3590 6960 3450 7150 3280 7270 3140 7390 3010 7570 2870 7750 2720 7870 2570 7970 2450 8140 2310 8320 -134820 67880 -1830 -6560 -1930 -6420 -2030 -6290 -2100 -6090 -2190 -5890 -2290 -5750 -2380 -5630 -2460 -5430 -2530 -5250 -2630 -5120 -2730 -4980 -2790 -4800 -2870 -4650 -2940 -4470 -3020 -4320 -3130 -4200 -3200 -4070 -3250 -3880 -3340 -3750 -3430 -3620 -3470 -3440 -3590 -3340 -3660 -3220 -3700 -3030 -3830 -2930 -3880 -2800 -3960 -2670 -4050 -2540 -4100 -2400 -4210 -2280 -4330 -2180 -4380 -2050 20 10zm-211490 -24720l44420 -130780 0 0 10750 40 10560 80 10400 140 10230 210 10000 270 9780 330 9660 370 9480 460 9270 500 9080 570 8900 630 8750 690 8590 760 8360 830 8180 880 8040 960 7840 1020 7670 1080 7520 1170 7360 1230 7140 1310 7030 1380 6860 1470 6610 1530 6530 1620 6370 1730 6170 1790 6060 1900 5900 2000 5740 2110 5550 2210 5430 2330 -88740 121900 -2970 -1270 -3250 -1290 -3460 -1270 -3700 -1260 -3940 -1240 -4230 -1230 -4430 -1190 -4670 -1160 -4990 -1150 -5140 -1110 -5390 -1060 -5660 -1030 -5840 -990 -6080 -930 -6330 -900 -6580 -860 -6760 -800 -7020 -760 -7240 -710 -7430 -660 -7650 -610 -7900 -550 -8120 -510 -8350 -460 -8520 -400 -8740 -350 -9020 -290 -9200 -250 -9390 -190 -9600 -140 -9840 -80 -10050 -20 0 0zm-254140 -130780l298560 0 -44420 130780 -298560 0 -43170 -65390 87590 -65390zm-87590 65390l22210 -65390 65380 0 -87590 65390zm-370100 1089560l370100 -1089560 130760 0 -370100 1089560 -87590 65390 -43170 -65390zm43170 65390l-65380 0 22210 -65390 43170 65390z"/>
    </g>
   </g>
  </g>
 </g>
</svg>
