<svg xmlns="http://www.w3.org/2000/svg" width="34.583" height="27.27" viewBox="0 0 34.583 27.27">
  <g id="Grupo_66" data-name="Grupo 66" transform="translate(-374.245 -57.126)">
    <path id="Caminho_232" data-name="Caminho 232" d="M408.828,82.383c-11.527-6.973-23.056,6.973-34.583,0V59.139c11.527,6.973,23.056-6.973,34.583,0Z" fill="#cdc9bf"/>
    <g id="Grupo_65" data-name="Grupo 65">
      <path id="Caminho_233" data-name="Caminho 233" d="M408.557,81.941V59.265c-11.339-6.539-22.677,6.844-34.016.334V82.276C385.88,88.786,397.218,75.4,408.557,81.941Z" fill="#2f9832"/>
      <path id="Caminho_234" data-name="Caminho 234" d="M405.685,69.282c-4.7-4.433-9.395-6.023-14.093-7.6a.088.088,0,0,0-.086.026c-4.7,4.42-9.4,8.835-14.093,10.411a.057.057,0,0,0-.038.056.116.116,0,0,0,.038.079c4.7,4.423,9.4,6.008,14.093,7.587a.07.07,0,0,0,.043,0,.137.137,0,0,0,.043-.025c4.7-4.42,9.395-8.83,14.093-10.4a.056.056,0,0,0,.037-.056A.115.115,0,0,0,405.685,69.282Z" fill="#f7e718"/>
      <path id="Caminho_235" data-name="Caminho 235" d="M388.31,70.085a22.876,22.876,0,0,0-2.25.744,6.123,6.123,0,0,0-.18,1.463,4.136,4.136,0,0,0,5.669,4.137,8.475,8.475,0,0,0,5.412-5.452C394.667,69.378,391.635,69.158,388.31,70.085Z" fill="#0b0b54"/>
      <g id="Grupo_64" data-name="Grupo 64">
        <path id="Caminho_236" data-name="Caminho 236" d="M388.31,70.085c3.319-.925,6.346-.707,8.638.885a6.448,6.448,0,0,0,.209-.936c-2.391-1.543-5.478-1.7-8.847-.758-.66.179-1.309.39-1.944.62a6.926,6.926,0,0,0-.3.93A23.032,23.032,0,0,1,388.31,70.085Z" fill="#fff"/>
      </g>
      <path id="Caminho_237" data-name="Caminho 237" d="M388.31,69.276c3.371-.94,6.459-.785,8.851.761a5.9,5.9,0,0,0,.058-.807,4.138,4.138,0,0,0-5.67-4.139,8.543,8.543,0,0,0-5.185,4.805C387,69.666,387.649,69.455,388.31,69.276Z" fill="#0b0b54"/>
      <path id="Caminho_238" data-name="Caminho 238" d="M388.632,69.753c0-.041,0-.083.005-.124l.307-.075c0-.037,0-.074,0-.11l-.307.077,0-.094.369-.091c0-.039,0-.078,0-.116l-.477.115c-.007.187-.013.374-.02.561l.5-.122c0-.039,0-.078,0-.117C388.894,69.689,388.763,69.722,388.632,69.753Z" fill="#2f9730"/>
      <path id="Caminho_239" data-name="Caminho 239" d="M389.477,69.477c-.024-.111-.046-.222-.07-.333l0,0-.147.028-.048.56v.008l.108-.022c.009-.11.019-.22.028-.33l.066.312.1-.02.123-.35c-.009.108-.019.215-.028.323v.008l.106-.021.048-.56v-.008l-.148.03C389.565,69.224,389.52,69.351,389.477,69.477Z" fill="#2f9730"/>
      <path id="Caminho_240" data-name="Caminho 240" d="M390.475,69.273l.251-.032.017-.112-.25.032.012-.072.3-.038.018-.112c-.133.018-.264.035-.4.051h-.007l-.084.511v.008l.406-.051h.008c.006-.038.013-.075.019-.113l-.309.04C390.462,69.348,390.469,69.311,390.475,69.273Z" fill="#2f9730"/>
      <path id="Caminho_241" data-name="Caminho 241" d="M395.415,69.74c.054.039.1.073.078.113s-.061.038-.118.017a.1.1,0,0,1-.071-.064.074.074,0,0,1,.008-.047l0-.008-.115-.043,0,.007a.164.164,0,0,0-.021.119.214.214,0,0,0,.136.136.312.312,0,0,0,.175.017.2.2,0,0,0,.131-.109c.065-.117-.031-.185-.107-.238-.049-.035-.091-.065-.074-.1a.069.069,0,0,1,.041-.037.131.131,0,0,1,.07.011c.034.013.086.045.053.105l0,.008.111.043.005-.008a.167.167,0,0,0,.024-.123.164.164,0,0,0-.106-.111l-.008,0a.3.3,0,0,0-.182-.026.2.2,0,0,0-.125.1C395.253,69.622,395.343,69.688,395.415,69.74Z" fill="#2f9730"/>
      <path id="Caminho_242" data-name="Caminho 242" d="M394.539,69.714c.144.041.286.083.43.126l.007,0c.018-.039.038-.077.056-.116l-.342-.1c.021-.041.04-.083.061-.124l.262.077.006,0,.053-.107c-.089-.028-.178-.054-.267-.08.014-.032.03-.062.045-.094l.315.095.007,0c.018-.039.038-.078.056-.116l-.409-.124h-.007l-.269.55Z" fill="#2f9730"/>
      <path id="Caminho_243" data-name="Caminho 243" d="M396.178,70.149c.069-.113-.022-.188-.094-.249-.046-.037-.086-.071-.068-.1a.068.068,0,0,1,.041-.035.111.111,0,0,1,.07.016.091.091,0,0,1,.058.061.068.068,0,0,1-.012.048l0,.008.1.048.007,0,0-.007a.157.157,0,0,0-.067-.243l-.008,0a.279.279,0,0,0-.187-.037.205.205,0,0,0-.121.1c-.067.11.018.182.086.241.051.043.1.08.072.118a.056.056,0,0,1-.035.025.158.158,0,0,1-.144-.067.064.064,0,0,1,.006-.065l0-.007-.112-.052-.005.008a.168.168,0,0,0-.026.118.219.219,0,0,0,.128.146.286.286,0,0,0,.18.028A.208.208,0,0,0,396.178,70.149Z" fill="#2f9730"/>
      <path id="Caminho_244" data-name="Caminho 244" d="M386.714,70.461h0l.028-.008a.349.349,0,0,0,.215-.357.2.2,0,0,0-.256-.186.161.161,0,0,0-.027.008.315.315,0,0,0-.166.141.33.33,0,0,0-.049.213A.206.206,0,0,0,386.714,70.461Zm-.136-.246a.223.223,0,0,1,.032-.115.158.158,0,0,1,.1-.071c.09-.021.129.051.129.126a.226.226,0,0,1-.032.117.159.159,0,0,1-.1.071C386.618,70.363,386.578,70.292,386.578,70.215Z" fill="#2f9730"/>
      <path id="Caminho_245" data-name="Caminho 245" d="M396.844,70.088a.174.174,0,0,0-.12-.127.2.2,0,0,0-.107,0,.381.381,0,0,0-.244.212.32.32,0,0,0-.025.214.174.174,0,0,0,.121.126.2.2,0,0,0,.105,0,.381.381,0,0,0,.244-.211A.321.321,0,0,0,396.844,70.088Zm-.114.136a.241.241,0,0,1-.156.168.094.094,0,0,1-.066-.007c-.049-.022-.066-.071-.046-.137a.242.242,0,0,1,.155-.168.1.1,0,0,1,.068.007A.1.1,0,0,1,396.73,70.224Z" fill="#2f9730"/>
      <path id="Caminho_246" data-name="Caminho 246" d="M388.336,69.687v-.015a.226.226,0,0,0-.042-.153.2.2,0,0,0-.187-.055l-.278.079c0,.181.007.363.01.545v.006l.008,0c.021-.005.215-.056.27-.076a.362.362,0,0,0,.173-.145A.318.318,0,0,0,388.336,69.687Zm-.237-.1a.1.1,0,0,1,.123.061.693.693,0,0,1,.006.086v.006a.2.2,0,0,1-.047.113.229.229,0,0,1-.116.067l-.113.03c0-.042-.005-.253-.006-.322Z" fill="#2f9730"/>
      <path id="Caminho_247" data-name="Caminho 247" d="M387.56,69.945a.333.333,0,0,0,.068-.133.126.126,0,0,0-.049-.134l0,0a.128.128,0,0,0-.108-.023h0l-.331.1-.007,0,.03.548.115-.037c0-.066-.008-.131-.013-.2l.2-.066a.348.348,0,0,1,.056.122c0,.03,0,.057,0,.057v.008l.112-.029v-.008a.362.362,0,0,0-.026-.151A.3.3,0,0,0,387.56,69.945Zm-.186-.149.019,0,.056-.018a.054.054,0,0,1,.04.008.036.036,0,0,1,.018.035.1.1,0,0,1-.023.058.211.211,0,0,1-.076.036l-.159.05-.009-.121C387.269,69.832,387.339,69.808,387.374,69.8Z" fill="#2f9730"/>
      <path id="Caminho_248" data-name="Caminho 248" d="M392.936,69.431a.244.244,0,0,0,.047-.009.4.4,0,0,0,.255-.3c.031-.159-.053-.279-.187-.268a.247.247,0,0,0-.047.01.4.4,0,0,0-.256.3.256.256,0,0,0,.031.2A.166.166,0,0,0,392.936,69.431Zm-.074-.258a.239.239,0,0,1,.142-.189.133.133,0,0,1,.04-.005c.074,0,.091.071.081.133a.242.242,0,0,1-.142.189.11.11,0,0,1-.041,0C392.868,69.3,392.852,69.235,392.862,69.173Z" fill="#2f9730"/>
      <path id="Caminho_249" data-name="Caminho 249" d="M392.445,69.166a.361.361,0,0,0,.1-.118.165.165,0,0,0,0-.156l0,0a.109.109,0,0,0-.091-.058c-.053,0-.316.008-.319.008h-.008l-.15.572,0,.008.113,0c.017-.07.034-.14.052-.21l.2-.006a.432.432,0,0,1,.008.143c-.008.033-.016.061-.016.061l0,.009.107,0,0-.009a.476.476,0,0,0,.027-.164A.265.265,0,0,0,392.445,69.166Zm-.241-.209.135,0h.013c.025,0,.054,0,.054,0a.046.046,0,0,1,.031.021.04.04,0,0,1,0,.042.1.1,0,0,1-.039.054l-.015.007a.208.208,0,0,1-.061.006l-.153,0C392.178,69.063,392.194,69,392.2,68.957Z" fill="#2f9730"/>
      <path id="Caminho_250" data-name="Caminho 250" d="M394.306,69.566c-.012.032-.025.06-.025.06l0,.007.1.025,0-.007a.529.529,0,0,0,.05-.165.286.286,0,0,0-.005-.086.35.35,0,0,0,.114-.1.191.191,0,0,0,.026-.161l0,0a.109.109,0,0,0-.076-.077c-.051-.01-.3-.05-.3-.05l-.006,0-.229.562,0,.008.106.017c.027-.069.053-.138.081-.206l.186.03A.511.511,0,0,1,394.306,69.566Zm.044-.4.02,0,.052.008a.053.053,0,0,1,.026.028.051.051,0,0,1,0,.045.1.1,0,0,1-.044.047l-.007,0a.214.214,0,0,1-.068,0l-.146-.025c.016-.042.034-.084.05-.126C394.255,69.147,394.315,69.156,394.35,69.161Z" fill="#2f9730"/>
      <path id="Caminho_251" data-name="Caminho 251" d="M391.878,68.889a.11.11,0,0,0-.092-.055c-.055,0-.32.018-.322.017l-.008,0c-.046.192-.093.385-.139.579l.113-.007c.015-.07.032-.139.047-.209l.2-.012a.187.187,0,0,0,.045-.009.2.2,0,0,0,.049-.023.358.358,0,0,0,.107-.125.158.158,0,0,0,0-.155Zm-.345.078c.029,0,.1-.005.134-.008h.015l.054,0a.055.055,0,0,1,.033.021.042.042,0,0,1,0,.041.1.1,0,0,1-.038.054.043.043,0,0,1-.018.008.3.3,0,0,1-.059.008l-.154.009C391.509,69.073,391.524,69.007,391.533,68.967Z" fill="#2f9730"/>
      <path id="Caminho_252" data-name="Caminho 252" d="M393.676,69.46l-.024.059,0,.008.085.013c.026-.067.052-.134.077-.2l.023,0c.013-.032.024-.064.037-.1l-.019,0v0l-.007,0-.031,0-.023,0a.15.15,0,0,0-.037,0l-.086-.013c-.012.032-.025.064-.036.1l.049.007a.21.21,0,0,1-.083.056.1.1,0,0,1-.068,0c-.048-.018-.064-.068-.046-.135a.264.264,0,0,1,.156-.177.1.1,0,0,1,.067,0,.083.083,0,0,1,.053.075v0h0a.177.177,0,0,0,.033,0l.037,0,.039.007v-.01a.184.184,0,0,0-.128-.211.211.211,0,0,0-.105.005.419.419,0,0,0-.245.229c-.07.156-.027.305.1.333a.214.214,0,0,0,.106,0A.288.288,0,0,0,393.676,69.46Z" fill="#2f9730"/>
      <path id="Caminho_253" data-name="Caminho 253" d="M393.191,68.359l.134-.136.136.058c-.018-.048-.034-.1-.052-.143.045-.046.089-.092.134-.137l-.166.048c-.018-.048-.034-.1-.052-.143-.016.058-.034.116-.051.173l-.166.049.134.059C393.226,68.244,393.208,68.3,393.191,68.359Z" fill="#fff"/>
      <path id="Caminho_254" data-name="Caminho 254" d="M387.067,70.924l-.194.047-.06-.172-.06.2-.194.045.157.078c-.021.067-.04.132-.061.2.053-.05.106-.1.158-.152l.157.078-.06-.17Z" fill="#fff"/>
      <path id="Caminho_255" data-name="Caminho 255" d="M393.144,70.155l-.042-.121c-.015.049-.029.1-.043.146l-.141.042.113.048c-.014.049-.028.1-.043.147.038-.039.075-.078.114-.116l.113.049c-.015-.04-.029-.081-.043-.121l.113-.116Z" fill="#fff"/>
      <path id="Caminho_256" data-name="Caminho 256" d="M388,72.559c-.009-.027-.019-.053-.027-.08l-.03.1-.092.024.075.034c-.01.032-.019.064-.029.1l.076-.074.074.034-.029-.081c.026-.024.05-.049.076-.074Z" fill="#fff"/>
      <path id="Caminho_257" data-name="Caminho 257" d="M387.375,73.232l-.054-.149-.008,0h-.007c-.018.058-.035.117-.052.175l-.194.047.157.077-.06.2c.053-.05.1-.1.157-.153l.158.075c-.021-.056-.04-.112-.061-.169l.157-.155Z" fill="#fff"/>
      <path id="Caminho_258" data-name="Caminho 258" d="M386.779,73.9c-.017-.048-.034-.1-.052-.144-.016.056-.034.112-.05.168l-.164.038c.044.022.089.044.132.067-.016.057-.034.113-.05.169l.132-.129.134.067c-.016-.049-.034-.1-.051-.145l.134-.13C386.89,73.872,386.834,73.884,386.779,73.9Z" fill="#fff"/>
      <path id="Caminho_259" data-name="Caminho 259" d="M389.335,71.793l-.051-.14c-.016.056-.032.112-.049.168l-.163.047.132.057-.051.169.131-.132.131.057-.05-.14.132-.133Z" fill="#fff"/>
      <path id="Caminho_260" data-name="Caminho 260" d="M388.662,73.568l-.047-.13c-.015.052-.03.1-.046.156l-.151.041.122.055-.047.157.122-.122.122.055c-.015-.044-.03-.088-.046-.131l.122-.123Z" fill="#fff"/>
      <path id="Caminho_261" data-name="Caminho 261" d="M388.485,74.318l-.044-.122c-.013.049-.028.1-.042.145-.047.014-.093.026-.14.038l.113.052-.044.146.113-.114.115.052-.044-.122.113-.114Z" fill="#fff"/>
      <path id="Caminho_262" data-name="Caminho 262" d="M389.338,74.529l-.06-.167c-.019.067-.04.134-.059.2l-.2.055.157.07-.06.2.157-.159.157.069c-.019-.056-.04-.112-.059-.169.053-.052.1-.106.157-.159Z" fill="#fff"/>
      <path id="Caminho_263" data-name="Caminho 263" d="M391.549,71.246c-.018.058-.034.116-.052.174l-.166.05.135.057-.051.174.134-.138.135.057c-.018-.048-.035-.1-.052-.143l.135-.138-.167.05C391.583,71.341,391.565,71.294,391.549,71.246Z" fill="#fff"/>
      <path id="Caminho_264" data-name="Caminho 264" d="M391.159,72.033l-.14.042-.043-.12c-.015.048-.029.1-.043.147l-.141.042.114.047-.044.147c.038-.039.075-.078.114-.117l.114.048-.044-.12Z" fill="#fff"/>
      <path id="Caminho_265" data-name="Caminho 265" d="M391.26,72.588l.074.033c-.01-.027-.019-.053-.028-.079l.074-.078-.092.028c-.01-.026-.019-.052-.028-.078-.01.032-.019.064-.029.1l-.092.028.075.032-.029.1C391.21,72.64,391.234,72.614,391.26,72.588Z" fill="#fff"/>
      <path id="Caminho_266" data-name="Caminho 266" d="M392.255,71.795l-.051-.143-.051.173-.167.051.135.057c-.018.058-.034.116-.052.173q.068-.068.135-.138l.135.057c-.018-.047-.034-.1-.052-.142l.135-.138Z" fill="#fff"/>
      <path id="Caminho_267" data-name="Caminho 267" d="M391.441,73.1c-.019.068-.04.135-.059.2l-.2.059.158.066c-.021.069-.04.137-.061.2.053-.054.106-.108.158-.163l.158.068c-.021-.056-.04-.112-.061-.167l.157-.162-.194.059Z" fill="#fff"/>
      <path id="Caminho_268" data-name="Caminho 268" d="M391.568,75.373l-.023-.064c-.008.026-.015.052-.023.078l-.075.023.061.026c-.008.025-.015.051-.023.078l.06-.062.061.025-.023-.064c.019-.021.04-.041.06-.062Z" fill="#fff"/>
      <path id="Caminho_269" data-name="Caminho 269" d="M392.732,73.527l-.044-.121c-.013.049-.028.1-.042.146l-.14.043c.038.015.075.031.113.048l-.044.147c.038-.039.075-.079.113-.117l.114.049c-.015-.04-.029-.081-.043-.121.038-.038.075-.077.113-.116Z" fill="#fff"/>
      <path id="Caminho_270" data-name="Caminho 270" d="M393.187,74.014l-.051-.143c-.018.058-.034.116-.052.173l-.166.05.134.058c-.018.057-.034.116-.052.173l.136-.137.133.058c-.016-.048-.034-.1-.05-.143l.133-.137Z" fill="#fff"/>
      <path id="Caminho_271" data-name="Caminho 271" d="M393.777,73.241c-.014-.041-.028-.081-.043-.121-.014.048-.028.1-.043.146l-.14.04.113.049c-.015.049-.028.1-.043.147l.113-.115.114.05c-.015-.041-.029-.082-.043-.122l.113-.114Z" fill="#fff"/>
      <path id="Caminho_272" data-name="Caminho 272" d="M394.408,73.09l-.044-.121-.044.145-.139.039.113.052c-.015.048-.028.1-.043.146l.113-.115.113.052-.042-.122.113-.115Z" fill="#fff"/>
      <path id="Caminho_273" data-name="Caminho 273" d="M394.379,73.477l-.051.172-.167.047.135.06c-.018.058-.034.115-.052.173l.135-.136.135.061c-.018-.048-.035-.1-.052-.144l.135-.135-.167.046C394.413,73.573,394.395,73.525,394.379,73.477Z" fill="#fff"/>
      <path id="Caminho_274" data-name="Caminho 274" d="M394.435,74.211l-.042-.122c-.015.049-.029.1-.043.146l-.141.039.113.051c-.014.049-.028.1-.043.146.038-.038.075-.077.114-.115l.113.052-.044-.122.114-.114Z" fill="#fff"/>
      <path id="Caminho_275" data-name="Caminho 275" d="M395,73.031c-.015-.041-.028-.081-.043-.122-.015.049-.028.1-.043.145l-.141.037.114.053c-.015.048-.029.1-.043.144l.113-.112.113.052c-.014-.04-.028-.081-.043-.122.038-.037.075-.075.114-.112Z" fill="#fff"/>
      <path id="Caminho_276" data-name="Caminho 276" d="M395.462,72.617c-.018-.048-.034-.1-.052-.145-.016.057-.034.114-.051.172l-.139.035v0l-.008.012.116.054c-.018.058-.034.115-.052.172l.134-.132.135.063c-.018-.048-.034-.1-.052-.145l.136-.132Z" fill="#fff"/>
      <path id="Caminho_277" data-name="Caminho 277" d="M395.7,72.007l-.051-.145c-.018.057-.035.114-.052.171l-.166.043.134.063-.051.171.135-.131.133.064c-.016-.049-.034-.1-.05-.146l.133-.131Z" fill="#fff"/>
      <path id="Caminho_278" data-name="Caminho 278" d="M395.3,71.767l.156.074-.06-.17.158-.155-.195.05c-.019-.056-.04-.113-.059-.169-.021.066-.04.133-.061.2l-.194.051.157.073c-.021.067-.04.134-.061.2Z" fill="#fff"/>
      <path id="Caminho_279" data-name="Caminho 279" d="M396.25,71.433l-.044-.123c-.015.048-.028.1-.043.144l-.141.033.114.056c-.015.047-.029.1-.043.143l.113-.109.113.055c-.014-.041-.028-.082-.043-.123l.114-.108Z" fill="#fff"/>
    </g>
  </g>
</svg>
